<svg width="18" height="20" viewBox="0 0 18 20" fill="none" xmlns="http://www.w3.org/2000/svg">
<path d="M10 17.4998H16V8.47778L9 3.03378L2 8.47778V17.4998H8V11.4998H10V17.4998ZM18 18.4998C18 18.765 17.8946 19.0194 17.7071 19.2069C17.5196 19.3944 17.2652 19.4998 17 19.4998H1C0.734784 19.4998 0.48043 19.3944 0.292893 19.2069C0.105357 19.0194 2.4071e-07 18.765 2.4071e-07 18.4998V7.98978C-0.000105484 7.8374 0.0346172 7.687 0.101516 7.55008C0.168415 7.41317 0.26572 7.29335 0.386 7.19978L8.386 0.977784C8.56154 0.841229 8.7776 0.76709 9 0.76709C9.2224 0.76709 9.43846 0.841229 9.614 0.977784L17.614 7.19978C17.7343 7.29335 17.8316 7.41317 17.8985 7.55008C17.9654 7.687 18.0001 7.8374 18 7.98978V18.4998Z" fill="#4E4B66"/>
</svg>
