<svg width="20" height="21" viewBox="0 0 20 21" fill="none" xmlns="http://www.w3.org/2000/svg">
<path d="M10 0.5C15.52 0.5 20 4.98 20 10.5C20 16.02 15.52 20.5 10 20.5C4.48 20.5 0 16.02 0 10.5C0 4.98 4.48 0.5 10 0.5ZM4.023 13.916C5.491 16.106 7.695 17.5 10.16 17.5C12.624 17.5 14.829 16.107 16.296 13.916C14.6317 12.3606 12.4379 11.4968 10.16 11.5C7.88171 11.4966 5.68751 12.3604 4.023 13.916ZM10 9.5C10.7956 9.5 11.5587 9.18393 12.1213 8.62132C12.6839 8.05871 13 7.29565 13 6.5C13 5.70435 12.6839 4.94129 12.1213 4.37868C11.5587 3.81607 10.7956 3.5 10 3.5C9.20435 3.5 8.44129 3.81607 7.87868 4.37868C7.31607 4.94129 7 5.70435 7 6.5C7 7.29565 7.31607 8.05871 7.87868 8.62132C8.44129 9.18393 9.20435 9.5 10 9.5Z" fill="#1877F2"/>
</svg>
