<svg width="20" height="21" viewBox="0 0 20 21" fill="none" xmlns="http://www.w3.org/2000/svg">
<path d="M10 20.5C4.477 20.5 0 16.023 0 10.5C0 4.977 4.477 0.5 10 0.5C15.523 0.5 20 4.977 20 10.5C20 16.023 15.523 20.5 10 20.5ZM5.013 16.756C6.42855 17.8877 8.18768 18.5029 10 18.5C11.97 18.5 13.773 17.788 15.167 16.608C14.5157 15.9397 13.7371 15.4089 12.877 15.0468C12.017 14.6847 11.0931 14.4988 10.16 14.5C9.19259 14.4989 8.2355 14.6989 7.34947 15.0872C6.46343 15.4756 5.66778 16.0439 5.013 16.756ZM3.616 15.32C4.45645 14.4281 5.47067 13.7177 6.59614 13.2327C7.72161 12.7477 8.93448 12.4984 10.16 12.5C11.3417 12.4985 12.512 12.7304 13.6037 13.1824C14.6955 13.6344 15.6873 14.2976 16.522 15.134C17.3781 13.9291 17.8836 12.5106 17.9826 11.0359C18.0815 9.56119 17.77 8.08789 17.0825 6.77946C16.395 5.47102 15.3585 4.37862 14.088 3.62345C12.8174 2.86827 11.3625 2.47984 9.8846 2.50125C8.40672 2.52267 6.96366 2.95308 5.71552 3.74476C4.46738 4.53643 3.46296 5.6584 2.81369 6.9862C2.16442 8.314 1.89569 9.79571 2.03732 11.2669C2.17894 12.7382 2.72537 14.1414 3.616 15.321V15.32ZM10 11.5C8.93913 11.5 7.92172 11.0786 7.17157 10.3284C6.42143 9.57828 6 8.56087 6 7.5C6 6.43913 6.42143 5.42172 7.17157 4.67157C7.92172 3.92143 8.93913 3.5 10 3.5C11.0609 3.5 12.0783 3.92143 12.8284 4.67157C13.5786 5.42172 14 6.43913 14 7.5C14 8.56087 13.5786 9.57828 12.8284 10.3284C12.0783 11.0786 11.0609 11.5 10 11.5ZM10 9.5C10.5304 9.5 11.0391 9.28929 11.4142 8.91421C11.7893 8.53914 12 8.03043 12 7.5C12 6.96957 11.7893 6.46086 11.4142 6.08579C11.0391 5.71071 10.5304 5.5 10 5.5C9.46957 5.5 8.96086 5.71071 8.58579 6.08579C8.21071 6.46086 8 6.96957 8 7.5C8 8.03043 8.21071 8.53914 8.58579 8.91421C8.96086 9.28929 9.46957 9.5 10 9.5Z" fill="#4E4B66"/>
</svg>
