<svg width="16" height="22" viewBox="0 0 16 22" fill="none" xmlns="http://www.w3.org/2000/svg">
<path d="M1 0.5H15C15.2652 0.5 15.5196 0.605357 15.7071 0.792893C15.8946 0.98043 16 1.23478 16 1.5V20.643C16.0001 20.7324 15.9763 20.8202 15.9309 20.8973C15.8855 20.9743 15.8204 21.0378 15.7421 21.0811C15.6639 21.1244 15.5755 21.1459 15.4861 21.1434C15.3968 21.141 15.3097 21.1146 15.234 21.067L8 16.53L0.766 21.066C0.690368 21.1135 0.603387 21.1399 0.514102 21.1424C0.424817 21.1449 0.336486 21.1235 0.258295 21.0803C0.180104 21.0371 0.114907 20.9738 0.0694828 20.8969C0.0240588 20.82 6.64708e-05 20.7323 0 20.643V1.5C0 1.23478 0.105357 0.98043 0.292893 0.792893C0.48043 0.605357 0.734784 0.5 1 0.5ZM14 2.5H2V17.932L8 14.171L14 17.932V2.5Z" fill="#4E4B66"/>
</svg>
