<svg width="18" height="20" viewBox="0 0 18 20" fill="none" xmlns="http://www.w3.org/2000/svg">
<path d="M18 18.5C18 18.7652 17.8946 19.0196 17.7071 19.2071C17.5196 19.3947 17.2652 19.5 17 19.5H1C0.734784 19.5 0.48043 19.3947 0.292893 19.2071C0.105357 19.0196 2.4071e-07 18.7652 2.4071e-07 18.5V7.99003C-0.000105484 7.83764 0.0346172 7.68724 0.101516 7.55033C0.168415 7.41341 0.26572 7.29359 0.386 7.20003L8.386 0.978028C8.56154 0.841473 8.7776 0.767334 9 0.767334C9.2224 0.767334 9.43846 0.841473 9.614 0.978028L17.614 7.20003C17.7343 7.29359 17.8316 7.41341 17.8985 7.55033C17.9654 7.68724 18.0001 7.83764 18 7.99003V18.5ZM8 11.5V17.5H10V11.5H8Z" fill="#1877F2"/>
</svg>
