<svg width="21" height="18" viewBox="0 0 21 18" fill="none" xmlns="http://www.w3.org/2000/svg">
<path d="M0.500001 5.99401C0.499474 5.20621 0.654353 4.42605 0.955768 3.69819C1.25718 2.97034 1.69921 2.30909 2.25655 1.75231C2.81388 1.19553 3.47558 0.754165 4.20373 0.453478C4.93189 0.152791 5.71221 -0.00130701 6.5 8.35025e-06H14.5C17.813 8.35025e-06 20.5 2.69501 20.5 5.99401V18H6.5C3.187 18 0.500001 15.305 0.500001 12.006V5.99401ZM18.5 16V5.99401C18.4974 4.93451 18.0749 3.91925 17.3251 3.17063C16.5754 2.42201 15.5595 2.00106 14.5 2.00001H6.5C5.97485 1.99869 5.4546 2.10106 4.9691 2.30123C4.48359 2.50141 4.04238 2.79546 3.67076 3.16652C3.29914 3.53758 3.00443 3.97835 2.80353 4.46356C2.60262 4.94876 2.49947 5.46886 2.5 5.99401V12.006C2.50265 13.0655 2.92511 14.0808 3.67486 14.8294C4.4246 15.578 5.4405 15.999 6.5 16H18.5ZM12.5 8.00001H14.5V10H12.5V8.00001ZM6.5 8.00001H8.5V10H6.5V8.00001Z" fill="#050505"/>
</svg>
