<svg width="12" height="12" viewBox="0 0 12 12" fill="none" xmlns="http://www.w3.org/2000/svg">
<path d="M6 11.8334C2.77826 11.8334 0.166672 9.22183 0.166672 6.00008C0.166672 2.77833 2.77826 0.166748 6 0.166748C9.22176 0.166748 11.8333 2.77833 11.8333 6.00008C11.8333 9.22183 9.22176 11.8334 6 11.8334ZM6 10.6667C7.23768 10.6667 8.42467 10.1751 9.29984 9.29991C10.175 8.42474 10.6667 7.23776 10.6667 6.00008C10.6667 4.7624 10.175 3.57542 9.29984 2.70025C8.42467 1.82508 7.23768 1.33341 6 1.33341C4.76233 1.33341 3.57534 1.82508 2.70017 2.70025C1.825 3.57542 1.33334 4.7624 1.33334 6.00008C1.33334 7.23776 1.825 8.42474 2.70017 9.29991C3.57534 10.1751 4.76233 10.6667 6 10.6667ZM6.58334 6.00008H8.91667V7.16675H5.41667V3.08341H6.58334V6.00008Z" fill="#4E4B66"/>
</svg>
