<svg width="19" height="22" viewBox="0 0 19 22" fill="none" xmlns="http://www.w3.org/2000/svg">
<path d="M11.12 16.0232L6.921 13.7332C6.3728 14.3193 5.66098 14.7269 4.87807 14.9031C4.09516 15.0793 3.27735 15.0159 2.53092 14.7212C1.78449 14.4266 1.14396 13.9142 0.692568 13.2506C0.241175 12.5871 -0.000205994 11.8032 -0.000205994 11.0007C-0.000205994 10.1982 0.241175 9.41427 0.692568 8.75076C1.14396 8.08725 1.78449 7.57486 2.53092 7.28016C3.27735 6.98547 4.09516 6.92211 4.87807 7.09832C5.66098 7.27452 6.3728 7.68214 6.921 8.2682L11.121 5.9782C10.8826 5.03428 10.9966 4.03579 11.4416 3.16991C11.8867 2.30402 12.6323 1.63018 13.5387 1.2747C14.445 0.919225 15.4499 0.906508 16.365 1.23894C17.28 1.57137 18.0425 2.22612 18.5093 3.08046C18.9762 3.93481 19.1154 4.93009 18.9009 5.87975C18.6864 6.82941 18.1329 7.66824 17.3442 8.23901C16.5555 8.80979 15.5857 9.07331 14.6166 8.9802C13.6475 8.88708 12.7456 8.44371 12.08 7.7332L7.88 10.0232C8.0412 10.6646 8.0412 11.3358 7.88 11.9772L12.079 14.2672C12.7446 13.5567 13.6465 13.1133 14.6156 13.0202C15.5847 12.9271 16.5545 13.1906 17.3432 13.7614C18.1319 14.3322 18.6854 15.171 18.8999 16.1207C19.1144 17.0703 18.9752 18.0656 18.5083 18.9199C18.0415 19.7743 17.279 20.429 16.364 20.7615C15.4489 21.0939 14.444 21.0812 13.5377 20.7257C12.6313 20.3702 11.8857 19.6964 11.4406 18.8305C10.9956 17.9646 10.8816 16.9661 11.12 16.0222V16.0232ZM4 13.0002C4.53043 13.0002 5.03914 12.7895 5.41421 12.4144C5.78929 12.0393 6 11.5306 6 11.0002C6 10.4698 5.78929 9.96106 5.41421 9.58599C5.03914 9.21092 4.53043 9.0002 4 9.0002C3.46957 9.0002 2.96086 9.21092 2.58579 9.58599C2.21071 9.96106 2 10.4698 2 11.0002C2 11.5306 2.21071 12.0393 2.58579 12.4144C2.96086 12.7895 3.46957 13.0002 4 13.0002ZM15 7.0002C15.5304 7.0002 16.0391 6.78949 16.4142 6.41442C16.7893 6.03934 17 5.53064 17 5.0002C17 4.46977 16.7893 3.96106 16.4142 3.58599C16.0391 3.21092 15.5304 3.0002 15 3.0002C14.4696 3.0002 13.9609 3.21092 13.5858 3.58599C13.2107 3.96106 13 4.46977 13 5.0002C13 5.53064 13.2107 6.03934 13.5858 6.41442C13.9609 6.78949 14.4696 7.0002 15 7.0002ZM15 19.0002C15.5304 19.0002 16.0391 18.7895 16.4142 18.4144C16.7893 18.0393 17 17.5306 17 17.0002C17 16.4698 16.7893 15.9611 16.4142 15.586C16.0391 15.2109 15.5304 15.0002 15 15.0002C14.4696 15.0002 13.9609 15.2109 13.5858 15.586C13.2107 15.9611 13 16.4698 13 17.0002C13 17.5306 13.2107 18.0393 13.5858 18.4144C13.9609 18.7895 14.4696 19.0002 15 19.0002Z" fill="#4E4B66"/>
</svg>
